<svg xmlns="http://www.w3.org/2000/svg" viewBox="0 0 212.6 27.86" width="212.6" height="27.86"><defs><style>.cls-1{fill:#525556;}.cls-2{fill:#004f9f;}.cls-3{fill:#758cc6;}</style></defs><title>logo</title><g id="Ebene_2" data-name="Ebene 2"><g id="Ebene_1-2" data-name="Ebene 1"><path class="cls-1" d="M9.12,15.53c0-4.05-1.8-4.63-3.73-4.63a7.61,7.61,0,0,0-2.91.57v7c0,1.36,1.06,2,3.13,2,1.63,0,3.51-.57,3.51-5m2.5,0c0,6.26-3.76,7.18-6,7.18C.41,22.72,0,19.35,0,18.31V3.75H2.48V9.11A10.46,10.46,0,0,1,5.39,8.7c2.83,0,6.23,1.2,6.23,6.83"/><path class="cls-1" d="M23,16.08a14.86,14.86,0,0,0-2.37-.16c-1.17,0-4,.35-4,2.29,0,1.55,1.11,2.31,3.26,2.31S23,19.78,23,18.28Zm2.5-1.69v3.92c0,1-.41,4.41-5.63,4.41s-5.74-3.43-5.74-4.49c0-2.69,2.39-4.3,6.39-4.3a17.83,17.83,0,0,1,2.48.16c-.11-2.23-1.09-3.21-3.75-3.21a11.59,11.59,0,0,0-3.76.68V9.44A11.45,11.45,0,0,1,19.6,8.7c3.78,0,5.91,2,5.91,5.69"/><path class="cls-1" d="M39.62,8.92,34,23.94c-1.2,3.24-2.94,3.92-4.22,3.92a9.1,9.1,0,0,1-1.9-.22V25.41a6.06,6.06,0,0,0,1.52.22c1.36,0,2.23-1.63,2.72-3.13L27,8.92h2.67L33.36,19.1,37,8.92Z"/><path class="cls-1" d="M43.63,14.88h7c-.14-1.58-.79-3.95-3.48-3.95-2.29,0-3.27,1-3.48,3.95m8.55,4.71v2.26a12.25,12.25,0,0,1-4.82.9c-2.86,0-6.26-1.2-6.26-6.86,0-1.77,0-7.18,6-7.18,3.65,0,6,2.58,6,6.56q0,1-.08,1.88H43.65c.38,2.83,2,3.46,3.84,3.46a10,10,0,0,0,4.68-1"/><path class="cls-1" d="M58.67,22.5h-2.5V10.07a17.29,17.29,0,0,1,6.61-1.36V11a18,18,0,0,0-4.11.57Z"/><path class="cls-1" d="M65.14,22.5V10.09a13.25,13.25,0,0,1,5.8-1.41c3.43,0,5.47,1.91,5.47,5.06V22.5H73.9V13.58c0-1.28-.35-2.59-3.08-2.59a10.59,10.59,0,0,0-3.18.49v11Z"/><path class="cls-1" d="M105.57,8.92h2.5V22.5h-2.5Zm2.58-2.1h-2.67V4.19h2.67Z"/><path class="cls-1" d="M112,22.5V10.09a13.25,13.25,0,0,1,5.8-1.41c3.43,0,5.47,1.91,5.47,5.06V22.5h-2.5V13.58c0-1.28-.35-2.59-3.08-2.59a10.59,10.59,0,0,0-3.18.49v11Z"/><path class="cls-1" d="M127.1,22.5V10.09a13.25,13.25,0,0,1,5.8-1.41c3.43,0,5.47,1.91,5.47,5.06V22.5h-2.5V13.58c0-1.28-.35-2.59-3.08-2.59a10.59,10.59,0,0,0-3.18.49v11Z"/><path class="cls-1" d="M151.71,15.73c0-4.22-1.85-4.79-3.89-4.79s-3.89.57-3.89,4.79,1.85,4.79,3.89,4.79,3.89-.57,3.89-4.79m2.5,0c0,5.77-3.48,7-6.39,7s-6.39-1.22-6.39-7,3.48-7,6.39-7,6.39,1.22,6.39,7"/><polygon class="cls-1" points="168.43 8.92 163.21 22.5 160.65 22.5 155.45 8.92 158.12 8.92 161.93 19.51 165.76 8.92 168.43 8.92"/><path class="cls-1" d="M178.78,16.08a14.87,14.87,0,0,0-2.37-.16c-1.17,0-4,.35-4,2.29,0,1.55,1.11,2.31,3.26,2.31s3.13-.74,3.13-2.23Zm2.5-1.69v3.92c0,1-.41,4.41-5.63,4.41s-5.74-3.43-5.74-4.49c0-2.69,2.39-4.3,6.39-4.3a17.83,17.83,0,0,1,2.48.16c-.11-2.23-1.09-3.21-3.75-3.21a11.59,11.59,0,0,0-3.76.68V9.44a11.45,11.45,0,0,1,4.11-.74c3.78,0,5.91,2,5.91,5.69"/><path class="cls-1" d="M188,11v7.89c0,1.17.76,1.6,2,1.6a3,3,0,0,0,1.58-.41v2.23a5.07,5.07,0,0,1-1.93.38,3.86,3.86,0,0,1-4.16-4V11h-2.37V8.92h2.37V4.87H188V8.92h3.62V11Z"/><path class="cls-1" d="M194.4,8.92h2.5V22.5h-2.5ZM197,6.83h-2.67V4.19H197Z"/><polygon class="cls-1" points="212.6 8.92 207.37 22.5 204.82 22.5 199.62 8.92 202.28 8.92 206.09 19.51 209.93 8.92 212.6 8.92"/><path class="cls-2" d="M92.34,27.7c3-3.86,7.21-10.09,7.21-13.85S95.29,3.86,92.34,0H87.6c2.94,3.84,7.22,10.12,7.22,13.85s-4.28,10-7.22,13.85Z"/><path class="cls-3" d="M87.16,13.85c0-1.47,1-3.88,2.81-6.85-.68-1.12-1.47-2.32-2.37-3.58-3.28,4.6-5.18,8.41-5.18,10.43s1.95,5.87,5.18,10.43c.9-1.26,1.69-2.47,2.37-3.6-1.79-3-2.81-5.39-2.81-6.83"/></g></g></svg>